<svg width="704" height="358" viewBox="0 0 704 358" fill="none" xmlns="http://www.w3.org/2000/svg">
<path fill-rule="evenodd" clip-rule="evenodd" d="M90.58 285.659C90.5806 286.157 90.4829 286.651 90.2927 287.112C90.1025 287.572 89.8235 287.991 89.4715 288.344C89.1195 288.696 88.7015 288.976 88.2413 289.168C87.7811 289.359 87.2878 289.458 86.7895 289.458C86.2911 289.458 85.7978 289.359 85.3376 289.167C84.8774 288.976 84.4594 288.696 84.1075 288.343C83.7556 287.99 83.4767 287.571 83.2866 287.111C83.0966 286.65 82.9992 286.156 83 285.658C82.9989 284.652 83.3974 283.686 84.1079 282.974C84.8183 282.262 85.7825 281.861 86.7885 281.86C87.2869 281.86 87.7803 281.959 88.2406 282.15C88.7009 282.341 89.119 282.621 89.4711 282.974C89.8232 283.327 90.1024 283.745 90.2926 284.206C90.4829 284.667 90.5806 285.16 90.58 285.659Z" stroke="#B384F9" stroke-width="2" stroke-linecap="round" stroke-linejoin="round"/>
<path d="M457.252 79.1702V71" stroke="#B384F9" stroke-width="2" stroke-linecap="round" stroke-linejoin="round"/>
<path d="M461.847 75.5957H453.678" stroke="#B384F9" stroke-width="2" stroke-linecap="round" stroke-linejoin="round"/>
<path d="M429.574 30.1702V22" stroke="#B384F9" stroke-width="2" stroke-linecap="round" stroke-linejoin="round"/>
<path d="M434.169 26.5957H426" stroke="#B384F9" stroke-width="2" stroke-linecap="round" stroke-linejoin="round"/>
<path d="M350.574 62.1702V54" stroke="#B384F9" stroke-width="2" stroke-linecap="round" stroke-linejoin="round"/>
<path d="M355.169 58.5957H347" stroke="#B384F9" stroke-width="2" stroke-linecap="round" stroke-linejoin="round"/>
<path d="M494.574 9.17021V1" stroke="#B384F9" stroke-width="2" stroke-linecap="round" stroke-linejoin="round"/>
<path d="M499.169 5.5957H491" stroke="#B384F9" stroke-width="2" stroke-linecap="round" stroke-linejoin="round"/>
<path d="M628.574 318.17V310" stroke="#B384F9" stroke-width="2" stroke-linecap="round" stroke-linejoin="round"/>
<path d="M633 314H624" stroke="#B384F9" stroke-width="2" stroke-linecap="round" stroke-linejoin="round"/>
<path d="M265.574 137.17V129" stroke="#B384F9" stroke-width="2" stroke-linecap="round" stroke-linejoin="round"/>
<path d="M270.169 133.596H262" stroke="#B384F9" stroke-width="2" stroke-linecap="round" stroke-linejoin="round"/>
<path d="M219.574 224.17V216" stroke="#B384F9" stroke-width="2" stroke-linecap="round" stroke-linejoin="round"/>
<path d="M224.169 220.596H216" stroke="#B384F9" stroke-width="2" stroke-linecap="round" stroke-linejoin="round"/>
<path d="M155.574 121.17V113" stroke="#B384F9" stroke-width="2" stroke-linecap="round" stroke-linejoin="round"/>
<path d="M160.169 117.596H152" stroke="#B384F9" stroke-width="2" stroke-linecap="round" stroke-linejoin="round"/>
<path d="M44.5741 179.17V171" stroke="#B384F9" stroke-width="2" stroke-linecap="round" stroke-linejoin="round"/>
<path d="M49.1692 175.596H41" stroke="#B384F9" stroke-width="2" stroke-linecap="round" stroke-linejoin="round"/>
<path d="M424.574 346.17V338" stroke="#B384F9" stroke-width="2" stroke-linecap="round" stroke-linejoin="round"/>
<path d="M429.169 342.596H421" stroke="#B384F9" stroke-width="2" stroke-linecap="round" stroke-linejoin="round"/>
<path fill-rule="evenodd" clip-rule="evenodd" d="M496.121 237.286C496.122 238.292 495.723 239.258 495.012 239.97C494.302 240.682 493.337 241.083 492.331 241.084C491.833 241.084 491.339 240.985 490.879 240.793C490.419 240.602 490.002 240.322 489.65 239.969C489.298 239.617 489.019 239.198 488.829 238.737C488.639 238.277 488.542 237.783 488.542 237.285C488.541 236.279 488.94 235.314 489.65 234.602C490.361 233.89 491.325 233.489 492.331 233.488C493.337 233.489 494.302 233.89 495.012 234.602C495.723 235.314 496.122 236.28 496.121 237.286Z" stroke="#B384F9" stroke-width="2" stroke-linecap="round" stroke-linejoin="round"/>
<path fill-rule="evenodd" clip-rule="evenodd" d="M512.579 314.798C512.58 315.804 512.181 316.77 511.47 317.482C510.759 318.194 509.795 318.595 508.788 318.596C508.29 318.596 507.797 318.497 507.337 318.306C506.877 318.114 506.459 317.834 506.108 317.481C505.756 317.129 505.477 316.71 505.287 316.249C505.097 315.789 504.999 315.295 505 314.797C504.999 313.791 505.398 312.826 506.108 312.114C506.819 311.402 507.783 311.001 508.788 311C509.795 311.001 510.759 311.402 511.47 312.114C512.181 312.826 512.58 313.792 512.579 314.798Z" stroke="#B384F9" stroke-width="2" stroke-linecap="round" stroke-linejoin="round"/>
<path fill-rule="evenodd" clip-rule="evenodd" d="M413.579 93.7981C413.58 94.8045 413.181 95.7699 412.47 96.4822C411.759 97.1944 410.795 97.5952 409.788 97.5963C409.29 97.5956 408.797 97.4968 408.337 97.3055C407.877 97.1142 407.459 96.8342 407.108 96.4814C406.756 96.1286 406.477 95.71 406.287 95.2494C406.097 94.7888 405.999 94.2953 406 93.7971C405.999 92.7912 406.398 91.8262 407.108 91.1141C407.819 90.4021 408.783 90.0014 409.788 90C410.795 90.0011 411.759 90.4018 412.47 91.1141C413.181 91.8263 413.58 92.7918 413.579 93.7981Z" stroke="#B384F9" stroke-width="2" stroke-linecap="round" stroke-linejoin="round"/>
<path fill-rule="evenodd" clip-rule="evenodd" d="M284.579 53.7981C284.58 54.8045 284.181 55.7699 283.47 56.4822C282.759 57.1944 281.795 57.5952 280.788 57.5963C280.29 57.5956 279.797 57.4968 279.337 57.3055C278.877 57.1142 278.459 56.8342 278.108 56.4814C277.756 56.1286 277.477 55.71 277.287 55.2494C277.097 54.7888 276.999 54.2953 277 53.7971C276.999 52.7912 277.398 51.8262 278.108 51.1141C278.819 50.4021 279.783 50.0014 280.788 50C281.795 50.0011 282.759 50.4018 283.47 51.1141C284.181 51.8263 284.58 52.7918 284.579 53.7981Z" stroke="#B384F9" stroke-width="2" stroke-linecap="round" stroke-linejoin="round"/>
<path fill-rule="evenodd" clip-rule="evenodd" d="M354.579 95.7981C354.58 96.8045 354.181 97.7699 353.47 98.4822C352.759 99.1944 351.795 99.5952 350.788 99.5963C350.29 99.5956 349.797 99.4968 349.337 99.3055C348.877 99.1142 348.459 98.8342 348.108 98.4814C347.756 98.1286 347.477 97.71 347.287 97.2494C347.097 96.7888 346.999 96.2953 347 95.7971C346.999 94.7912 347.398 93.8262 348.108 93.1141C348.819 92.4021 349.783 92.0014 350.788 92C351.795 92.0011 352.759 92.4018 353.47 93.1141C354.181 93.8263 354.58 94.7918 354.579 95.7981Z" stroke="#B384F9" stroke-width="2" stroke-linecap="round" stroke-linejoin="round"/>
<path fill-rule="evenodd" clip-rule="evenodd" d="M250.579 155.798C250.58 156.804 250.181 157.77 249.47 158.482C248.759 159.194 247.795 159.595 246.788 159.596C246.29 159.596 245.797 159.497 245.337 159.306C244.877 159.114 244.459 158.834 244.108 158.481C243.756 158.129 243.477 157.71 243.287 157.249C243.097 156.789 242.999 156.295 243 155.797C242.999 154.791 243.398 153.826 244.108 153.114C244.819 152.402 245.783 152.001 246.788 152C247.795 152.001 248.759 152.402 249.47 153.114C250.181 153.826 250.58 154.792 250.579 155.798Z" stroke="#B384F9" stroke-width="2" stroke-linecap="round" stroke-linejoin="round"/>
<path fill-rule="evenodd" clip-rule="evenodd" d="M112.579 197.798C112.58 198.804 112.181 199.77 111.47 200.482C110.759 201.194 109.795 201.595 108.788 201.596C108.29 201.596 107.797 201.497 107.337 201.306C106.877 201.114 106.459 200.834 106.108 200.481C105.756 200.129 105.477 199.71 105.287 199.249C105.097 198.789 104.999 198.295 105 197.797C104.999 196.791 105.398 195.826 106.108 195.114C106.819 194.402 107.783 194.001 108.788 194C109.795 194.001 110.759 194.402 111.47 195.114C112.181 195.826 112.58 196.792 112.579 197.798Z" stroke="#B384F9" stroke-width="2" stroke-linecap="round" stroke-linejoin="round"/>
<path fill-rule="evenodd" clip-rule="evenodd" d="M202.579 242.798C202.58 243.804 202.181 244.77 201.47 245.482C200.759 246.194 199.795 246.595 198.788 246.596C198.29 246.596 197.797 246.497 197.337 246.306C196.877 246.114 196.459 245.834 196.108 245.481C195.756 245.129 195.477 244.71 195.287 244.249C195.097 243.789 194.999 243.295 195 242.797C194.999 241.791 195.398 240.826 196.108 240.114C196.819 239.402 197.783 239.001 198.788 239C199.795 239.001 200.759 239.402 201.47 240.114C202.181 240.826 202.58 241.792 202.579 242.798Z" stroke="#B384F9" stroke-width="2" stroke-linecap="round" stroke-linejoin="round"/>
<path d="M376 356H271" stroke="#B384F9" stroke-width="2" stroke-linecap="round" stroke-linejoin="round"/>
<path d="M617 314H519" stroke="#C498FC" stroke-width="2" stroke-linecap="round" stroke-linejoin="round"/>
<path d="M262.119 356.368H254.98" stroke="#B384F9" stroke-width="2" stroke-linecap="round" stroke-linejoin="round"/>
<path d="M619.02 79H514.02" stroke="#B384F9" stroke-width="2" stroke-linecap="round" stroke-linejoin="round"/>
<path d="M505.139 79.368H498" stroke="#B384F9" stroke-width="2" stroke-linecap="round" stroke-linejoin="round"/>
<path d="M122.02 326H17.0197" stroke="#B384F9" stroke-width="2" stroke-linecap="round" stroke-linejoin="round"/>
<path d="M8.13887 326.368H1" stroke="#B384F9" stroke-width="2" stroke-linecap="round" stroke-linejoin="round"/>
<path d="M203.02 149H98.0197" stroke="#B384F9" stroke-width="2" stroke-linecap="round" stroke-linejoin="round"/>
<path d="M89.1389 149.368H82" stroke="#B384F9" stroke-width="2" stroke-linecap="round" stroke-linejoin="round"/>
<path d="M584.02 290H479.02" stroke="#B384F9" stroke-width="2" stroke-linecap="round" stroke-linejoin="round"/>
<path d="M470.139 290.368H463" stroke="#B384F9" stroke-width="2" stroke-linecap="round" stroke-linejoin="round"/>
<path d="M671.02 225H566.02" stroke="#B384F9" stroke-width="2" stroke-linecap="round" stroke-linejoin="round"/>
<path d="M557.139 225.368H550" stroke="#B384F9" stroke-width="2" stroke-linecap="round" stroke-linejoin="round"/>
<path d="M702.02 149H597.02" stroke="#B384F9" stroke-width="2" stroke-linecap="round" stroke-linejoin="round"/>
<path d="M588.139 149H581" stroke="#B384F9" stroke-width="2" stroke-linecap="round" stroke-linejoin="round"/>
<path d="M365.852 33H319" stroke="#B384F9" stroke-width="2" stroke-linecap="round" stroke-linejoin="round"/>
<path d="M315.185 33H312" stroke="#B384F9" stroke-width="2" stroke-linecap="round" stroke-linejoin="round"/>
<path d="M227 189H180.148" stroke="#B384F9" stroke-width="2" stroke-linecap="round" stroke-linejoin="round"/>
<path d="M176.185 189.368H173" stroke="#B384F9" stroke-width="2" stroke-linecap="round" stroke-linejoin="round"/>
<path d="M152 248H105.148" stroke="#B384F9" stroke-width="2" stroke-linecap="round" stroke-linejoin="round"/>
<path d="M101.185 248.368H98" stroke="#B384F9" stroke-width="2" stroke-linecap="round" stroke-linejoin="round"/>
<path d="M274 98H227.148" stroke="#B384F9" stroke-width="2" stroke-linecap="round" stroke-linejoin="round"/>
<path d="M223.185 98.368H220" stroke="#B384F9" stroke-width="2" stroke-linecap="round" stroke-linejoin="round"/>
<path d="M142.02 216H37.0197" stroke="#B384F9" stroke-width="2" stroke-linecap="round" stroke-linejoin="round"/>
<path d="M28.1389 216.368H21" stroke="#B384F9" stroke-width="2" stroke-linecap="round" stroke-linejoin="round"/>
<path d="M341.645 257.866C341.645 244.657 352.331 233.95 365.512 233.95C378.695 233.95 389.38 244.657 389.38 257.866C389.38 266.371 384.949 273.839 378.274 278.079" stroke="#B384F9" stroke-width="2" stroke-linecap="round" stroke-linejoin="round"/>
<path d="M382.287 240.986C391.684 250.401 391.684 265.666 382.287 275.082C374.77 282.614 362.582 282.614 355.066 275.082C349.051 269.056 349.051 259.286 355.066 253.261C359.875 248.441 367.677 248.441 372.487 253.261C376.336 257.116 376.336 263.37 372.487 267.226" stroke="#B384F9" stroke-width="2" stroke-linecap="round" stroke-linejoin="round"/>
<path d="M404.235 268.711C406.762 267.471 409.54 266.828 412.355 266.832C422.57 266.832 430.849 275.129 430.849 285.364C430.849 295.598 422.57 303.895 412.355 303.895C405.929 303.895 400.269 300.611 396.955 295.627" stroke="#B384F9" stroke-width="2" stroke-linecap="round" stroke-linejoin="round"/>
<path d="M389.606 257.597C390.679 257.275 391.794 257.112 392.914 257.113C399.246 257.113 404.377 262.256 404.377 268.602" stroke="#B384F9" stroke-width="2" stroke-linecap="round" stroke-linejoin="round"/>
<path d="M425.186 298.615C418.039 305.775 406.451 305.775 399.304 298.615C393.587 292.885 393.587 283.597 399.304 277.868C403.879 273.283 411.295 273.283 415.869 277.868C419.529 281.534 419.529 287.48 415.869 291.146" stroke="#B384F9" stroke-width="2" stroke-linecap="round" stroke-linejoin="round"/>
<path d="M396.637 295.314C392.203 304.54 382.785 310.908 371.881 310.908C362.244 310.908 353.767 305.934 348.866 298.407" stroke="#B384F9" stroke-width="2" stroke-linecap="round" stroke-linejoin="round"/>
<path d="M348.497 298.42C344.94 304.561 338.305 308.692 330.708 308.692C322.512 308.692 315.438 303.886 312.136 296.933" stroke="#B384F9" stroke-width="2" stroke-linecap="round" stroke-linejoin="round"/>
<path d="M345.215 302.57C337.123 310.679 324.003 310.679 315.91 302.57C309.436 296.084 309.436 285.566 315.91 279.081C321.09 273.891 329.487 273.891 334.666 279.081C338.81 283.232 338.81 289.963 334.666 294.114C333.879 294.904 332.943 295.531 331.913 295.958C330.883 296.386 329.779 296.606 328.664 296.606C327.549 296.606 326.445 296.386 325.415 295.958C324.385 295.531 323.45 294.904 322.662 294.114C321.389 292.837 320.673 291.107 320.673 289.303C320.673 287.5 321.389 285.77 322.662 284.493" stroke="#B384F9" stroke-width="2" stroke-linecap="round" stroke-linejoin="round"/>
<path d="M308.667 266.947C312.517 259.472 320.299 254.362 329.272 254.362C333.562 254.355 337.769 255.547 341.418 257.803" stroke="#B384F9" stroke-width="2" stroke-linecap="round" stroke-linejoin="round"/>
<path d="M471.58 208.739C471.604 209.603 471.616 210.471 471.616 211.342C471.616 243.296 455.39 271.452 430.744 287.991" stroke="#B384F9" stroke-width="2" stroke-linecap="round" stroke-linejoin="round"/>
<path d="M316.36 277.104C298.657 260.302 287.614 236.524 287.614 210.164C287.614 159.25 328.804 117.979 379.614 117.979C400.129 117.979 419.077 124.709 434.378 136.083" stroke="#B384F9" stroke-width="2" stroke-linecap="round" stroke-linejoin="round"/>
<path d="M495.018 136.058H512.991C519.493 136.058 524.767 141.339 524.767 147.857C524.767 154.373 519.493 159.654 512.991 159.654H495.018C488.518 159.654 483.245 164.938 483.245 171.453C483.245 177.968 488.518 183.251 495.018 183.251H550.147C556.648 183.251 561.92 188.534 561.92 195.049C561.92 201.565 556.648 206.849 550.147 206.849H445.674C439.172 206.849 433.9 201.565 433.9 195.049C433.9 188.533 439.172 183.251 445.674 183.251" stroke="#C498FC" stroke-width="2" stroke-linecap="round" stroke-linejoin="round"/>
<path d="M456.829 183.251C463.332 183.251 468.605 177.971 468.605 171.453C468.605 164.937 463.332 159.655 456.829 159.655H417.168C410.663 159.655 405.392 154.373 405.392 147.856C405.392 141.34 410.664 136.057 417.168 136.057H471.264" stroke="#C498FC" stroke-width="2" stroke-linecap="round" stroke-linejoin="round"/>
<path d="M481.647 132.609L474.868 139.17" stroke="#C498FC" stroke-width="2" stroke-linecap="round" stroke-linejoin="round"/>
<path d="M491.164 132.609L484.385 139.17" stroke="#C498FC" stroke-width="2" stroke-linecap="round" stroke-linejoin="round"/>
<path d="M245.027 284.797H264.552C271.068 284.797 276.351 279.504 276.351 272.975C276.351 266.446 271.068 261.153 264.552 261.153H245.057C238.541 261.153 233.258 255.86 233.258 249.331V248.917C233.258 242.388 238.541 237.096 245.057 237.096H291.782" stroke="#C498FC" stroke-width="2" stroke-linecap="round" stroke-linejoin="round"/>
<path d="M171.243 284.797H220.32" stroke="#C498FC" stroke-width="2" stroke-linecap="round" stroke-linejoin="round"/>
<path d="M330.497 308.727H220.359" stroke="#C498FC" stroke-width="2" stroke-linecap="round" stroke-linejoin="round"/>
<path d="M171.243 284.797C164.648 284.797 159.255 290.153 159.255 296.762C159.255 303.372 164.648 308.727 171.243 308.727H190.036" stroke="#C498FC" stroke-width="2" stroke-linecap="round" stroke-linejoin="round"/>
<path d="M203.33 305.744L196.552 312.308" stroke="#C498FC" stroke-width="2" stroke-linecap="round" stroke-linejoin="round"/>
<path d="M212.847 305.744L206.068 312.308" stroke="#C498FC" stroke-width="2" stroke-linecap="round" stroke-linejoin="round"/>
<path d="M688.254 313.701L639 314" stroke="#C498FC" stroke-width="2" stroke-linecap="round" stroke-linejoin="round"/>
<path d="M529 337.631H639.137" stroke="#C498FC" stroke-width="2" stroke-linecap="round" stroke-linejoin="round"/>
<path d="M688.254 313.701C694.848 313.701 700.242 319.057 700.242 325.666C700.242 332.276 694.848 337.631 688.254 337.631H669.46" stroke="#C498FC" stroke-width="2" stroke-linecap="round" stroke-linejoin="round"/>
<path d="M656.167 334.648L662.944 341.212" stroke="#C498FC" stroke-width="2" stroke-linecap="round" stroke-linejoin="round"/>
<path d="M646.65 334.648L653.428 341.212" stroke="#C498FC" stroke-width="2" stroke-linecap="round" stroke-linejoin="round"/>
<path d="M447.988 313.701L497 314" stroke="#C498FC" stroke-width="2" stroke-linecap="round" stroke-linejoin="round"/>
<path d="M607.242 337.631H497.105" stroke="#C498FC" stroke-width="2" stroke-linecap="round" stroke-linejoin="round"/>
<path d="M447.988 313.701C441.394 313.701 436 319.057 436 325.666C436 332.276 441.394 337.631 447.988 337.631H466.782" stroke="#C498FC" stroke-width="2" stroke-linecap="round" stroke-linejoin="round"/>
<path d="M480.075 334.648L473.298 341.212" stroke="#C498FC" stroke-width="2" stroke-linecap="round" stroke-linejoin="round"/>
<path d="M489.592 334.648L482.814 341.212" stroke="#C498FC" stroke-width="2" stroke-linecap="round" stroke-linejoin="round"/>
<path d="M232.1 290.046V280.142" stroke="#C498FC" stroke-width="2" stroke-linecap="round" stroke-linejoin="round"/>
<path d="M237.042 285.095L227.148 285.097" stroke="#C498FC" stroke-width="2" stroke-linecap="round" stroke-linejoin="round"/>
<path d="M320.852 74H274" stroke="#B384F9" stroke-width="2" stroke-linecap="round" stroke-linejoin="round"/>
<path d="M270.185 74H267" stroke="#B384F9" stroke-width="2" stroke-linecap="round" stroke-linejoin="round"/>
<path d="M435.852 51H389" stroke="#B384F9" stroke-width="2" stroke-linecap="round" stroke-linejoin="round"/>
<path d="M385.185 51H382" stroke="#B384F9" stroke-width="2" stroke-linecap="round" stroke-linejoin="round"/>
</svg>
