<svg width="927" height="508" viewBox="0 0 927 508" fill="none" xmlns="http://www.w3.org/2000/svg">
<path d="M274.604 155.275H134.56C124.722 155.275 115.287 159.421 108.33 166.802C101.374 174.182 97.4655 184.193 97.4655 194.631C97.4655 216.364 114.072 233.983 134.563 233.983H193.904C214.392 233.983 231.002 251.598 231.002 273.335C231.002 295.068 214.392 312.691 193.904 312.691H64.0814C43.5974 312.691 26.9912 330.306 26.9912 352.043C26.9912 373.78 43.5974 391.399 64.0814 391.399H161.566" stroke="#939AFF" stroke-width="2" stroke-linecap="round" stroke-linejoin="round"/>
<path d="M396.29 155.275H427.815C448.299 155.275 464.909 172.89 464.909 194.631C464.909 216.364 448.299 233.983 427.811 233.983H338.567C333.696 233.982 328.873 235 324.372 236.977C319.872 238.955 315.783 241.853 312.339 245.507C308.895 249.162 306.163 253.5 304.299 258.275C302.435 263.049 301.476 268.167 301.477 273.335C301.477 295.068 318.079 312.691 338.567 312.691H371.951C392.435 312.691 409.041 330.306 409.041 352.043C409.041 373.78 392.435 391.399 371.951 391.399H246.502" stroke="#939AFF" stroke-width="2" stroke-linecap="round" stroke-linejoin="round"/>
<path fill-rule="evenodd" clip-rule="evenodd" d="M371.653 157.591C371.653 179.324 355.051 196.947 334.559 196.947C314.075 196.947 297.469 179.324 297.469 157.591C297.469 135.858 314.075 118.235 334.559 118.235C355.047 118.235 371.657 135.858 371.657 157.595L371.653 157.591Z" stroke="#939AFF" stroke-width="2" stroke-linecap="round" stroke-linejoin="round"/>
<path d="M103.442 271.796H140.536" stroke="#939AFF" stroke-width="2" stroke-linecap="round" stroke-linejoin="round"/>
<path fill-rule="evenodd" clip-rule="evenodd" d="M162.791 271.796C162.791 272.84 162.4 273.842 161.704 274.581C161.008 275.319 160.064 275.734 159.08 275.734C158.095 275.734 157.151 275.319 156.455 274.581C155.759 273.842 155.368 272.84 155.368 271.796C155.368 270.752 155.759 269.75 156.455 269.011C157.151 268.273 158.095 267.858 159.08 267.858C160.064 267.858 161.008 268.273 161.704 269.011C162.4 269.75 162.791 270.752 162.791 271.796Z" stroke="#939AFF" stroke-width="2" stroke-linecap="round" stroke-linejoin="round"/>
<path d="M35 437L162 437" stroke="#939AFF" stroke-width="2" stroke-linecap="round" stroke-linejoin="round"/>
<path fill-rule="evenodd" clip-rule="evenodd" d="M184.349 436.938C184.349 437.982 183.958 438.984 183.262 439.723C182.566 440.461 181.622 440.876 180.637 440.876C179.653 440.876 178.709 440.461 178.013 439.723C177.317 438.984 176.925 437.982 176.925 436.938C176.925 435.894 177.317 434.892 178.013 434.153C178.709 433.415 179.653 433 180.637 433C181.622 433 182.566 433.415 183.262 434.153C183.958 434.892 184.349 435.894 184.349 436.938Z" stroke="#939AFF" stroke-width="2" stroke-linecap="round" stroke-linejoin="round"/>
<path fill-rule="evenodd" clip-rule="evenodd" d="M19.545 195.866C19.5811 197.181 19.3681 198.491 18.9187 199.718C18.4693 200.944 17.7925 202.063 16.9285 203.007C16.0645 203.951 15.0308 204.702 13.8885 205.214C12.7462 205.727 11.5186 205.992 10.2783 205.992C9.03794 205.993 7.81011 205.729 6.66743 205.218C5.52475 204.706 4.49044 203.956 3.6257 203.013C2.76096 202.069 2.08336 200.951 1.63299 199.725C1.18262 198.499 0.968642 197.19 1.00371 195.874C1.07195 193.314 2.07809 190.883 3.80842 189.098C5.53876 187.313 7.85696 186.313 10.2706 186.312C12.6843 186.311 15.0033 187.309 16.735 189.092C18.4667 190.876 19.4747 193.306 19.545 195.866Z" stroke="#939AFF" stroke-width="2" stroke-linecap="round" stroke-linejoin="round"/>
<path d="M203.847 404.685V373.298" stroke="#939AFF" stroke-width="2" stroke-linecap="round" stroke-linejoin="round"/>
<path d="M218.632 388.998L189.023 389.001" stroke="#939AFF" stroke-width="2" stroke-linecap="round" stroke-linejoin="round"/>
<path d="M621.342 133.473V103.005" stroke="#939AFF" stroke-width="2" stroke-linecap="round" stroke-linejoin="round"/>
<path d="M635.7 118.244L606.957 118.247" stroke="#939AFF" stroke-width="2" stroke-linecap="round" stroke-linejoin="round"/>
<path d="M492.503 452.891V422.423" stroke="#939AFF" stroke-width="2" stroke-linecap="round" stroke-linejoin="round"/>
<path d="M506.861 437.662L478.118 437.665" stroke="#939AFF" stroke-width="2" stroke-linecap="round" stroke-linejoin="round"/>
<path d="M880.977 266.478V251.626" stroke="#939AFF" stroke-width="2" stroke-linecap="round" stroke-linejoin="round"/>
<path d="M888.403 259.052H873.551" stroke="#939AFF" stroke-width="2" stroke-linecap="round" stroke-linejoin="round"/>
<path d="M880.977 266.478V251.626" stroke="#939AFF" stroke-width="2" stroke-linecap="round" stroke-linejoin="round"/>
<path d="M888.403 259.052H873.551" stroke="#939AFF" stroke-width="2" stroke-linecap="round" stroke-linejoin="round"/>
<path d="M918.107 283.187V268.335" stroke="#939AFF" stroke-width="2" stroke-linecap="round" stroke-linejoin="round"/>
<path d="M925.532 275.761H910.681" stroke="#939AFF" stroke-width="2" stroke-linecap="round" stroke-linejoin="round"/>
<path d="M918.107 283.187V268.335" stroke="#939AFF" stroke-width="2" stroke-linecap="round" stroke-linejoin="round"/>
<path d="M925.532 275.761H910.681" stroke="#939AFF" stroke-width="2" stroke-linecap="round" stroke-linejoin="round"/>
<path d="M903.255 238.631V223.779" stroke="#939AFF" stroke-width="2" stroke-linecap="round" stroke-linejoin="round"/>
<path d="M910.681 231.205H895.829" stroke="#939AFF" stroke-width="2" stroke-linecap="round" stroke-linejoin="round"/>
<path d="M643.346 207.07V192.219" stroke="#939AFF" stroke-width="2" stroke-linecap="round" stroke-linejoin="round"/>
<path d="M650.772 199.645H635.92" stroke="#939AFF" stroke-width="2" stroke-linecap="round" stroke-linejoin="round"/>
<path d="M643.346 207.07V192.219" stroke="#939AFF" stroke-width="2" stroke-linecap="round" stroke-linejoin="round"/>
<path d="M650.772 199.645H635.92" stroke="#939AFF" stroke-width="2" stroke-linecap="round" stroke-linejoin="round"/>
<path d="M680.476 223.779V208.927" stroke="#939AFF" stroke-width="2" stroke-linecap="round" stroke-linejoin="round"/>
<path d="M687.902 216.353H673.05" stroke="#939AFF" stroke-width="2" stroke-linecap="round" stroke-linejoin="round"/>
<path d="M680.476 223.779V208.927" stroke="#939AFF" stroke-width="2" stroke-linecap="round" stroke-linejoin="round"/>
<path d="M687.902 216.353H673.05" stroke="#939AFF" stroke-width="2" stroke-linecap="round" stroke-linejoin="round"/>
<path d="M665.624 179.223V164.371" stroke="#939AFF" stroke-width="2" stroke-linecap="round" stroke-linejoin="round"/>
<path d="M673.05 171.797H658.198" stroke="#939AFF" stroke-width="2" stroke-linecap="round" stroke-linejoin="round"/>
<path fill-rule="evenodd" clip-rule="evenodd" d="M828.084 201.923C828.084 205.974 826.567 209.86 823.867 212.724C821.167 215.589 817.506 217.198 813.688 217.198C809.869 217.198 806.208 215.589 803.508 212.724C800.808 209.86 799.291 205.974 799.291 201.923C799.291 197.872 800.808 193.987 803.508 191.123C806.208 188.258 809.869 186.649 813.688 186.649C817.506 186.649 821.167 188.258 823.867 191.123C826.567 193.987 828.084 197.872 828.084 201.923Z" stroke="#939AFF" stroke-width="2" stroke-linecap="round" stroke-linejoin="round"/>
<path fill-rule="evenodd" clip-rule="evenodd" d="M523.619 291.035C523.619 295.086 522.103 298.971 519.403 301.836C516.703 304.7 513.041 306.309 509.223 306.309C505.405 306.309 501.743 304.7 499.043 301.836C496.343 298.971 494.827 295.086 494.827 291.035C494.827 286.984 496.343 283.099 499.043 280.234C501.743 277.37 505.405 275.761 509.223 275.761C513.041 275.761 516.703 277.37 519.403 280.234C522.103 283.099 523.619 286.984 523.619 291.035Z" stroke="#939AFF" stroke-width="2" stroke-linecap="round" stroke-linejoin="round"/>
<path fill-rule="evenodd" clip-rule="evenodd" d="M857.788 376.433C857.788 380.484 856.271 384.37 853.571 387.234C850.871 390.099 847.21 391.708 843.391 391.708C839.573 391.708 835.911 390.099 833.212 387.234C830.512 384.37 828.995 380.484 828.995 376.433C828.995 372.382 830.512 368.497 833.212 365.633C835.911 362.768 839.573 361.159 843.391 361.159C847.21 361.159 850.871 362.768 853.571 365.633C856.271 368.497 857.788 372.382 857.788 376.433Z" stroke="#939AFF" stroke-width="2" stroke-linecap="round" stroke-linejoin="round"/>
<path fill-rule="evenodd" clip-rule="evenodd" d="M762.161 327.742C762.161 330.204 761.183 332.565 759.443 334.306C757.702 336.047 755.341 337.025 752.879 337.025C750.417 337.025 748.056 336.047 746.315 334.306C744.574 332.565 743.596 330.204 743.596 327.742C743.596 325.281 744.574 322.92 746.315 321.179C748.056 319.438 750.417 318.46 752.879 318.46C755.341 318.46 757.702 319.438 759.443 321.179C761.183 322.92 762.161 325.281 762.161 327.742Z" stroke="#939AFF" stroke-width="2" stroke-linecap="round" stroke-linejoin="round"/>
<path fill-rule="evenodd" clip-rule="evenodd" d="M838.277 117.959C838.277 120.421 837.299 122.782 835.559 124.523C833.818 126.263 831.457 127.241 828.995 127.241C826.533 127.241 824.172 126.263 822.431 124.523C820.691 122.782 819.713 120.421 819.713 117.959C819.713 115.497 820.691 113.136 822.431 111.395C824.172 109.654 826.533 108.677 828.995 108.677C831.457 108.677 833.818 109.654 835.559 111.395C837.299 113.136 838.277 115.497 838.277 117.959Z" stroke="#939AFF" stroke-width="2" stroke-linecap="round" stroke-linejoin="round"/>
<path fill-rule="evenodd" clip-rule="evenodd" d="M762.161 327.742C762.161 330.204 761.183 332.565 759.443 334.306C757.702 336.047 755.341 337.025 752.879 337.025C750.417 337.025 748.056 336.047 746.315 334.306C744.574 332.565 743.596 330.204 743.596 327.742C743.596 325.281 744.574 322.92 746.315 321.179C748.056 319.438 750.417 318.46 752.879 318.46C755.341 318.46 757.702 319.438 759.443 321.179C761.183 322.92 762.161 325.281 762.161 327.742Z" stroke="#939AFF" stroke-width="2" stroke-linecap="round" stroke-linejoin="round"/>
<path fill-rule="evenodd" clip-rule="evenodd" d="M587.651 247.913C587.651 250.375 586.673 252.736 584.932 254.477C583.192 256.218 580.83 257.196 578.369 257.196C575.907 257.196 573.546 256.218 571.805 254.477C570.064 252.736 569.086 250.375 569.086 247.913C569.086 245.451 570.064 243.09 571.805 241.35C573.546 239.609 575.907 238.631 578.369 238.631C580.83 238.631 583.192 239.609 584.932 241.35C586.673 243.09 587.651 245.451 587.651 247.913Z" stroke="#939AFF" stroke-width="2" stroke-linecap="round" stroke-linejoin="round"/>
<path fill-rule="evenodd" clip-rule="evenodd" d="M728.744 195.932C728.744 198.393 727.766 200.755 726.026 202.495C724.285 204.236 721.924 205.214 719.462 205.214C717 205.214 714.639 204.236 712.898 202.495C711.158 200.755 710.18 198.393 710.18 195.932C710.18 193.47 711.158 191.109 712.898 189.368C714.639 187.627 717 186.649 719.462 186.649C721.924 186.649 724.285 187.627 726.026 189.368C727.766 191.109 728.744 193.47 728.744 195.932Z" stroke="#939AFF" stroke-width="2" stroke-linecap="round" stroke-linejoin="round"/>
<path fill-rule="evenodd" clip-rule="evenodd" d="M494.797 4.02186L488.614 21.7461C488.175 23.0135 487.233 24.0137 486.038 24.4834L469.333 31.0435C465.535 32.5336 465.535 38.2311 469.333 39.7213L486.038 46.2854C487.233 46.7511 488.175 47.7513 488.614 49.0147L494.797 66.7389C496.206 70.7721 501.576 70.7721 502.98 66.7389L509.163 49.0147C509.381 48.3893 509.725 47.8215 510.169 47.3504C510.614 46.8792 511.15 46.5159 511.739 46.2854L528.445 39.7254C532.246 38.2311 532.246 32.5336 528.445 31.0435L511.739 24.4834C511.149 24.2511 510.614 23.8862 510.169 23.4137C509.724 22.9412 509.381 22.3724 509.163 21.7461L502.98 4.02186C501.576 -0.00728644 496.206 -0.00728644 494.797 4.02186Z" stroke="#939AFF" stroke-width="2" stroke-linecap="round" stroke-linejoin="round"/>
<path fill-rule="evenodd" clip-rule="evenodd" d="M647.524 286.208L641.341 303.933C640.902 305.2 639.96 306.2 638.765 306.67L622.06 313.23C618.262 314.72 618.262 320.418 622.06 321.908L638.765 328.472C639.96 328.938 640.902 329.938 641.341 331.201L647.524 348.925C648.933 352.959 654.303 352.959 655.707 348.925L661.89 331.201C662.108 330.576 662.452 330.008 662.896 329.537C663.341 329.066 663.877 328.702 664.466 328.472L681.172 321.912C684.973 320.418 684.973 314.72 681.172 313.23L664.466 306.67C663.876 306.438 663.341 306.073 662.896 305.6C662.451 305.128 662.108 304.559 661.89 303.933L655.707 286.208C654.303 282.179 648.933 282.179 647.524 286.208Z" stroke="#939AFF" stroke-width="2" stroke-linecap="round" stroke-linejoin="round"/>
<path fill-rule="evenodd" clip-rule="evenodd" d="M363.481 440.297L357.298 458.026C357.08 458.651 356.737 459.219 356.292 459.691C355.847 460.163 355.312 460.527 354.722 460.759L338.017 467.319C334.219 468.809 334.219 474.507 338.017 475.997L354.722 482.561C355.917 483.026 356.859 484.027 357.298 485.29L363.481 503.018C364.893 507.048 370.26 507.048 371.664 503.018L377.847 485.29C378.065 484.665 378.408 484.097 378.853 483.626C379.298 483.155 379.834 482.791 380.423 482.561L397.129 476.001C400.93 474.507 400.93 468.809 397.129 467.319L380.423 460.759C379.834 460.527 379.298 460.162 378.854 459.691C378.409 459.219 378.066 458.651 377.847 458.026L371.664 440.297C370.26 436.268 364.89 436.268 363.481 440.297Z" stroke="#939AFF" stroke-width="2" stroke-linecap="round" stroke-linejoin="round"/>
</svg>
